<svg xmlns="http://www.w3.org/2000/svg" viewBox="0 0 512 512" width="512" height="512">
  <defs>
    <linearGradient id="b" x1="0" y1="0" x2="1" y2="1">
      <stop offset="0%" stop-color="#1e293b"/>
      <stop offset="100%" stop-color="#0f172a"/>
    </linearGradient>
  </defs>
  <rect width="512" height="512" rx="96" fill="url(#b)"/>
  <g stroke="rgba(255,255,255,0.07)" stroke-width="4" fill="none">
    <path d="M106 106l80 80M326 326l80 80M106 406l80-80M326 186l80-80"/>
    <path d="M64 256h54M394 256h54M256 64v54M256 394v54"/>
  </g>
  <path d="M118 208q70-48 140 0t140 44" fill="none" stroke="rgba(255,255,255,0.12)" stroke-width="5"/>
  <path d="M118 304q70-48 140 0t140-44" fill="none" stroke="rgba(255,255,255,0.12)" stroke-width="5"/>
  <g transform="translate(256,214)">
    <path d="M0-86c-38 0-70 30-70 65 0 48 70 118 70 118s70-70 70-118c0-35-32-65-70-65z" fill="#dc2626"/>
    <circle cx="0" cy="-21" r="24" fill="#fff"/>
    <circle cx="0" cy="-21" r="12" fill="#dc2626"/>
  </g>
</svg>