<svg xmlns="http://www.w3.org/2000/svg" viewBox="0 0 192 192" width="192" height="192">
  <defs>
    <linearGradient id="b" x1="0" y1="0" x2="1" y2="1">
      <stop offset="0%" stop-color="#1e293b"/>
      <stop offset="100%" stop-color="#0f172a"/>
    </linearGradient>
  </defs>
  <rect width="192" height="192" rx="36" fill="url(#b)"/>
  <g stroke="rgba(255,255,255,0.07)" stroke-width="1.5" fill="none">
    <path d="M40 40l30 30M122 122l30 30M40 152l30-30M122 70l30-30"/>
    <path d="M24 96h20M148 96h20M96 24v20M96 148v20"/>
  </g>
  <path d="M44 78q26-18 52 0t52 16" fill="none" stroke="rgba(255,255,255,0.12)" stroke-width="2"/>
  <path d="M44 114q26-18 52 0t52-16" fill="none" stroke="rgba(255,255,255,0.12)" stroke-width="2"/>
  <g transform="translate(96,80)">
    <path d="M0-32c-14 0-26 11-26 24 0 18 26 44 26 44s26-26 26-44c0-13-12-24-26-24z" fill="#dc2626"/>
    <circle cx="0" cy="-8" r="9" fill="#fff"/>
    <circle cx="0" cy="-8" r="4.5" fill="#dc2626"/>
  </g>
</svg>